<svg width="513" height="513" viewBox="0 0 513 513" fill="none" xmlns="http://www.w3.org/2000/svg">
<mask id="mask0_11163_1038" style="mask-type:luminance" maskUnits="userSpaceOnUse" x="0" y="0" width="513" height="513">
<path d="M256.333 512.334C397.718 512.334 512.333 397.719 512.333 256.334C512.333 114.949 397.718 0.333984 256.333 0.333984C114.948 0.333984 0.333374 114.949 0.333374 256.334C0.333374 397.719 114.948 512.334 256.333 512.334Z" fill="white"/>
</mask>
<g mask="url(#mask0_11163_1038)">
<path d="M40.9734 0.333984V314.516H155.562L256.333 139.97H512.333V0.333984H40.9734Z" fill="#DB4437"/>
<path d="M40.9734 0.333984V314.516H155.562L256.333 139.97H512.333V0.333984H40.9734Z" fill="url(#paint0_linear_11163_1038)"/>
</g>
<mask id="mask1_11163_1038" style="mask-type:luminance" maskUnits="userSpaceOnUse" x="0" y="0" width="513" height="513">
<path d="M256.333 512.334C397.718 512.334 512.333 397.719 512.333 256.334C512.333 114.949 397.718 0.333984 256.333 0.333984C114.948 0.333984 0.333374 114.949 0.333374 256.334C0.333374 397.719 114.948 512.334 256.333 512.334Z" fill="white"/>
</mask>
<g mask="url(#mask1_11163_1038)">
<path d="M158.326 313.499L42.457 114.779L40.7698 117.688L155.795 314.925L158.326 313.499Z" fill="#3E2723" fill-opacity="0.15"/>
</g>
<mask id="mask2_11163_1038" style="mask-type:luminance" maskUnits="userSpaceOnUse" x="0" y="0" width="513" height="513">
<path d="M256.333 512.334C397.718 512.334 512.333 397.719 512.333 256.334C512.333 114.949 397.718 0.333984 256.333 0.333984C114.948 0.333984 0.333374 114.949 0.333374 256.334C0.333374 397.719 114.948 512.334 256.333 512.334Z" fill="white"/>
</mask>
<g mask="url(#mask2_11163_1038)">
<path d="M0.333374 512.334H244.028L357.133 399.228V314.515H155.562L0.333374 48.2754V512.334Z" fill="#0F9D58"/>
<path d="M0.333374 512.334H244.028L357.133 399.228V314.515H155.562L0.333374 48.2754V512.334Z" fill="url(#paint1_linear_11163_1038)"/>
</g>
<mask id="mask3_11163_1038" style="mask-type:luminance" maskUnits="userSpaceOnUse" x="0" y="0" width="513" height="513">
<path d="M256.333 512.334C397.718 512.334 512.333 397.719 512.333 256.334C512.333 114.949 397.718 0.333984 256.333 0.333984C114.948 0.333984 0.333374 114.949 0.333374 256.334C0.333374 397.719 114.948 512.334 256.333 512.334Z" fill="white"/>
</mask>
<g mask="url(#mask3_11163_1038)">
<path d="M354.777 318.385L352.362 316.988L240.682 512.334H244.028L354.864 318.472L354.777 318.385Z" fill="#263238" fill-opacity="0.15"/>
</g>
<mask id="mask4_11163_1038" style="mask-type:luminance" maskUnits="userSpaceOnUse" x="0" y="0" width="513" height="513">
<path d="M256.333 512.334C397.718 512.334 512.333 397.719 512.333 256.334C512.333 114.949 397.718 0.333984 256.333 0.333984C114.948 0.333984 0.333374 114.949 0.333374 256.334C0.333374 397.719 114.948 512.334 256.333 512.334Z" fill="white"/>
</mask>
<g mask="url(#mask4_11163_1038)">
<mask id="mask5_11163_1038" style="mask-type:luminance" maskUnits="userSpaceOnUse" x="0" y="48" width="358" height="465">
<path d="M0.333374 512.336H244.028L357.133 399.23V314.517H155.562L0.333374 48.2773V512.336Z" fill="white"/>
</mask>
<g mask="url(#mask5_11163_1038)">
<path d="M256.333 139.973L357.133 314.518L244.028 512.336H512.333V139.973H256.333Z" fill="#FFCD40"/>
<path d="M256.333 139.973L357.133 314.518L244.028 512.336H512.333V139.973H256.333Z" fill="url(#paint2_linear_11163_1038)"/>
</g>
</g>
<mask id="mask6_11163_1038" style="mask-type:luminance" maskUnits="userSpaceOnUse" x="0" y="0" width="513" height="513">
<path d="M256.333 512.334C397.718 512.334 512.333 397.719 512.333 256.334C512.333 114.949 397.718 0.333984 256.333 0.333984C114.948 0.333984 0.333374 114.949 0.333374 256.334C0.333374 397.719 114.948 512.334 256.333 512.334Z" fill="white"/>
</mask>
<g mask="url(#mask6_11163_1038)">
<path d="M256.333 139.971L357.133 314.516L244.028 512.334H512.333V139.971H256.333Z" fill="#FFCD40"/>
<path d="M256.333 139.971L357.133 314.516L244.028 512.334H512.333V139.971H256.333Z" fill="url(#paint3_linear_11163_1038)"/>
</g>
<mask id="mask7_11163_1038" style="mask-type:luminance" maskUnits="userSpaceOnUse" x="0" y="0" width="513" height="513">
<path d="M256.333 512.334C397.718 512.334 512.333 397.719 512.333 256.334C512.333 114.949 397.718 0.333984 256.333 0.333984C114.948 0.333984 0.333374 114.949 0.333374 256.334C0.333374 397.719 114.948 512.334 256.333 512.334Z" fill="white"/>
</mask>
<g mask="url(#mask7_11163_1038)">
<mask id="mask8_11163_1038" style="mask-type:luminance" maskUnits="userSpaceOnUse" x="244" y="139" width="269" height="374">
<path d="M256.333 139.971L357.133 314.516L244.028 512.334H512.333V139.971H256.333Z" fill="white"/>
</mask>
<g mask="url(#mask8_11163_1038)">
<path d="M40.9734 0.333984V314.516H155.562L256.333 139.97H512.333V0.333984H40.9734Z" fill="#DB4437"/>
<path d="M40.9734 0.333984V314.516H155.562L256.333 139.97H512.333V0.333984H40.9734Z" fill="url(#paint4_linear_11163_1038)"/>
</g>
</g>
<mask id="mask9_11163_1038" style="mask-type:luminance" maskUnits="userSpaceOnUse" x="0" y="0" width="513" height="513">
<path d="M256.333 512.334C397.718 512.334 512.333 397.719 512.333 256.334C512.333 114.949 397.718 0.333984 256.333 0.333984C114.948 0.333984 0.333374 114.949 0.333374 256.334C0.333374 397.719 114.948 512.334 256.333 512.334Z" fill="white"/>
</mask>
<g mask="url(#mask9_11163_1038)">
<path d="M256.333 139.971V200.916L484.406 139.971H256.333Z" fill="url(#paint5_radial_11163_1038)"/>
</g>
<mask id="mask10_11163_1038" style="mask-type:luminance" maskUnits="userSpaceOnUse" x="0" y="0" width="513" height="513">
<path d="M256.333 512.334C397.718 512.334 512.333 397.719 512.333 256.334C512.333 114.949 397.718 0.333984 256.333 0.333984C114.948 0.333984 0.333374 114.949 0.333374 256.334C0.333374 397.719 114.948 512.334 256.333 512.334Z" fill="white"/>
</mask>
<g mask="url(#mask10_11163_1038)">
<mask id="mask11_11163_1038" style="mask-type:luminance" maskUnits="userSpaceOnUse" x="40" y="0" width="473" height="315">
<path d="M40.9734 0.333984V117.687L155.562 314.516L256.333 139.97H512.333V0.333984H40.9734Z" fill="white"/>
</mask>
<g mask="url(#mask11_11163_1038)">
<path d="M0.333374 512.334H244.028L357.133 399.228V314.515H155.562L0.333374 48.2754V512.334Z" fill="#0F9D58"/>
<path d="M0.333374 512.334H244.028L357.133 399.228V314.515H155.562L0.333374 48.2754V512.334Z" fill="url(#paint6_linear_11163_1038)"/>
</g>
</g>
<mask id="mask12_11163_1038" style="mask-type:luminance" maskUnits="userSpaceOnUse" x="0" y="0" width="513" height="513">
<path d="M256.333 512.334C397.718 512.334 512.333 397.719 512.333 256.334C512.333 114.949 397.718 0.333984 256.333 0.333984C114.948 0.333984 0.333374 114.949 0.333374 256.334C0.333374 397.719 114.948 512.334 256.333 512.334Z" fill="white"/>
</mask>
<g mask="url(#mask12_11163_1038)">
<path d="M40.9734 118.008L207.519 284.524L155.562 314.517L40.9734 118.008Z" fill="url(#paint7_radial_11163_1038)"/>
</g>
<mask id="mask13_11163_1038" style="mask-type:luminance" maskUnits="userSpaceOnUse" x="0" y="0" width="513" height="513">
<path d="M256.333 512.334C397.718 512.334 512.333 397.719 512.333 256.334C512.333 114.949 397.718 0.333984 256.333 0.333984C114.948 0.333984 0.333374 114.949 0.333374 256.334C0.333374 397.719 114.948 512.334 256.333 512.334Z" fill="white"/>
</mask>
<g mask="url(#mask13_11163_1038)">
<path d="M244.202 512.014L305.177 284.523L357.133 314.516L244.202 512.014Z" fill="url(#paint8_radial_11163_1038)"/>
</g>
<mask id="mask14_11163_1038" style="mask-type:luminance" maskUnits="userSpaceOnUse" x="0" y="0" width="513" height="513">
<path d="M256.333 512.334C397.718 512.334 512.333 397.719 512.333 256.334C512.333 114.949 397.718 0.333984 256.333 0.333984C114.948 0.333984 0.333374 114.949 0.333374 256.334C0.333374 397.719 114.948 512.334 256.333 512.334Z" fill="white"/>
</mask>
<g mask="url(#mask14_11163_1038)">
<path d="M256.333 372.698C320.599 372.698 372.697 320.6 372.697 256.334C372.697 192.068 320.599 139.971 256.333 139.971C192.068 139.971 139.97 192.068 139.97 256.334C139.97 320.6 192.068 372.698 256.333 372.698Z" fill="#F1F1F1"/>
<path d="M256.333 349.426C307.746 349.426 349.424 307.748 349.424 256.335C349.424 204.922 307.746 163.244 256.333 163.244C204.921 163.244 163.242 204.922 163.242 256.335C163.242 307.748 204.921 349.426 256.333 349.426Z" fill="#4285F4"/>
</g>
<mask id="mask15_11163_1038" style="mask-type:luminance" maskUnits="userSpaceOnUse" x="0" y="0" width="513" height="513">
<path d="M256.333 512.334C397.718 512.334 512.333 397.719 512.333 256.334C512.333 114.949 397.718 0.333984 256.333 0.333984C114.948 0.333984 0.333374 114.949 0.333374 256.334C0.333374 397.719 114.948 512.334 256.333 512.334Z" fill="white"/>
</mask>
<g mask="url(#mask15_11163_1038)">
<path d="M256.333 137.061C192.072 137.061 139.97 189.162 139.97 253.424V256.333C139.97 192.071 192.072 139.97 256.333 139.97H512.333V137.061H256.333Z" fill="#3E2723" fill-opacity="0.2"/>
<path d="M356.988 314.515C336.857 349.25 299.359 372.697 256.333 372.697C213.279 372.697 175.781 349.25 155.65 314.515H155.533L0.333374 48.2754V51.1845L155.562 317.425H155.679C175.81 352.159 213.308 375.606 256.362 375.606C299.388 375.606 336.886 352.188 357.017 317.425H357.163V314.515H356.988Z" fill="white" fill-opacity="0.1"/>
<path opacity="0.1" d="M259.242 139.971C258.748 139.971 258.282 140.029 257.788 140.058C321.381 140.843 372.697 192.567 372.697 256.334C372.697 320.102 321.381 371.825 257.788 372.611C258.282 372.611 258.748 372.698 259.242 372.698C323.504 372.698 375.606 320.596 375.606 256.334C375.606 192.073 323.504 139.971 259.242 139.971Z" fill="#3E2723"/>
<path d="M358.152 318.385C368.043 301.279 373.773 281.498 373.773 260.319C373.773 248.043 371.853 236.232 368.333 225.148C371.097 235.098 372.697 245.541 372.697 256.363C372.697 277.541 366.966 297.323 357.075 314.428L357.133 314.545L244.028 512.363H247.403L358.21 318.501L358.152 318.385Z" fill="white" fill-opacity="0.2"/>
</g>
<mask id="mask16_11163_1038" style="mask-type:luminance" maskUnits="userSpaceOnUse" x="0" y="0" width="513" height="513">
<path d="M256.333 512.334C397.718 512.334 512.333 397.719 512.333 256.334C512.333 114.949 397.718 0.333984 256.333 0.333984C114.948 0.333984 0.333374 114.949 0.333374 256.334C0.333374 397.719 114.948 512.334 256.333 512.334Z" fill="white"/>
</mask>
<g mask="url(#mask16_11163_1038)">
<path d="M256.333 3.24308C397.221 3.24308 511.519 117.076 512.304 257.789C512.304 257.294 512.333 256.829 512.333 256.334C512.333 114.952 397.715 0.333984 256.333 0.333984C114.952 0.333984 0.333374 114.952 0.333374 256.334C0.333374 256.829 0.362466 257.294 0.362466 257.789C1.14792 117.076 115.446 3.24308 256.333 3.24308Z" fill="white" fill-opacity="0.2"/>
<path d="M256.333 509.426C397.221 509.426 511.519 395.594 512.304 254.881C512.304 255.375 512.333 255.841 512.333 256.335C512.333 397.717 397.715 512.335 256.333 512.335C114.952 512.335 0.333374 397.717 0.333374 256.335C0.333374 255.841 0.362466 255.375 0.362466 254.881C1.14792 395.594 115.446 509.426 256.333 509.426Z" fill="#3E2723" fill-opacity="0.15"/>
</g>
<path d="M256.333 512.334C397.718 512.334 512.333 397.719 512.333 256.334C512.333 114.949 397.718 0.333984 256.333 0.333984C114.948 0.333984 0.333374 114.949 0.333374 256.334C0.333374 397.719 114.948 512.334 256.333 512.334Z" fill="url(#paint9_radial_11163_1038)"/>
<defs>
<linearGradient id="paint0_linear_11163_1038" x1="62.4047" y1="195.304" x2="215.132" y2="106.091" gradientUnits="userSpaceOnUse">
<stop stop-color="#A52714" stop-opacity="0.6"/>
<stop offset="0.66" stop-color="#A52714" stop-opacity="0"/>
</linearGradient>
<linearGradient id="paint1_linear_11163_1038" x1="299.592" y1="455.606" x2="129.898" y2="356.203" gradientUnits="userSpaceOnUse">
<stop stop-color="#055524" stop-opacity="0.4"/>
<stop offset="0.33" stop-color="#055524" stop-opacity="0"/>
</linearGradient>
<linearGradient id="paint2_linear_11163_1038" x1="331.563" y1="121.948" x2="374.297" y2="309.078" gradientUnits="userSpaceOnUse">
<stop stop-color="#EA6100" stop-opacity="0.3"/>
<stop offset="0.66" stop-color="#EA6100" stop-opacity="0"/>
</linearGradient>
<linearGradient id="paint3_linear_11163_1038" x1="331.563" y1="121.946" x2="374.297" y2="309.076" gradientUnits="userSpaceOnUse">
<stop stop-color="#EA6100" stop-opacity="0.3"/>
<stop offset="0.66" stop-color="#EA6100" stop-opacity="0"/>
</linearGradient>
<linearGradient id="paint4_linear_11163_1038" x1="62.4047" y1="195.304" x2="215.132" y2="106.091" gradientUnits="userSpaceOnUse">
<stop stop-color="#A52714" stop-opacity="0.6"/>
<stop offset="0.66" stop-color="#A52714" stop-opacity="0"/>
</linearGradient>
<radialGradient id="paint5_radial_11163_1038" cx="0" cy="0" r="1" gradientUnits="userSpaceOnUse" gradientTransform="translate(245.221 139.819) scale(244.591 244.591)">
<stop stop-color="#3E2723" stop-opacity="0.2"/>
<stop offset="1" stop-color="#3E2723" stop-opacity="0"/>
</radialGradient>
<linearGradient id="paint6_linear_11163_1038" x1="299.592" y1="455.606" x2="129.898" y2="356.203" gradientUnits="userSpaceOnUse">
<stop stop-color="#055524" stop-opacity="0.4"/>
<stop offset="0.33" stop-color="#055524" stop-opacity="0"/>
</linearGradient>
<radialGradient id="paint7_radial_11163_1038" cx="0" cy="0" r="1" gradientUnits="userSpaceOnUse" gradientTransform="translate(40.7116 118.211) scale(227.037 227.037)">
<stop stop-color="#3E2723" stop-opacity="0.2"/>
<stop offset="1" stop-color="#3E2723" stop-opacity="0"/>
</radialGradient>
<radialGradient id="paint8_radial_11163_1038" cx="0" cy="0" r="1" gradientUnits="userSpaceOnUse" gradientTransform="translate(255.868 256.736) scale(255.622 255.622)">
<stop stop-color="#263238" stop-opacity="0.2"/>
<stop offset="1" stop-color="#263238" stop-opacity="0"/>
</radialGradient>
<radialGradient id="paint9_radial_11163_1038" cx="0" cy="0" r="1" gradientUnits="userSpaceOnUse" gradientTransform="translate(76.8017 70.1929) scale(514.182)">
<stop stop-color="white" stop-opacity="0.1"/>
<stop offset="1" stop-color="white" stop-opacity="0"/>
</radialGradient>
</defs>
</svg>
